<svg id="visual" viewBox="0 0 900 200" width="900" height="200" xmlns="http://www.w3.org/2000/svg" xmlns:xlink="http://www.w3.org/1999/xlink" version="1.1"><rect x="0" y="0" width="900" height="200" fill="#202731"></rect><path d="M0 80L12.5 81C25 82 50 84 75 84.3C100 84.7 125 83.3 150 82.3C175 81.3 200 80.7 225 83.8C250 87 275 94 300 95.8C325 97.7 350 94.3 375 94C400 93.7 425 96.3 450 95.8C475 95.3 500 91.7 525 88.8C550 86 575 84 600 83.7C625 83.3 650 84.7 675 87.2C700 89.7 725 93.3 750 93.5C775 93.7 800 90.3 825 89C850 87.7 875 88.3 887.5 88.7L900 89L900 0L887.5 0C875 0 850 0 825 0C800 0 775 0 750 0C725 0 700 0 675 0C650 0 625 0 600 0C575 0 550 0 525 0C500 0 475 0 450 0C425 0 400 0 375 0C350 0 325 0 300 0C275 0 250 0 225 0C200 0 175 0 150 0C125 0 100 0 75 0C50 0 25 0 12.5 0L0 0Z" fill="#fa7268"></path><path d="M0 90L12.5 89C25 88 50 86 75 84C100 82 125 80 150 79C175 78 200 78 225 79.2C250 80.3 275 82.7 300 81C325 79.3 350 73.7 375 73.3C400 73 425 78 450 79.2C475 80.3 500 77.7 525 77.5C550 77.3 575 79.7 600 78.3C625 77 650 72 675 70.5C700 69 725 71 750 72.3C775 73.7 800 74.3 825 74.8C850 75.3 875 75.7 887.5 75.8L900 76L900 0L887.5 0C875 0 850 0 825 0C800 0 775 0 750 0C725 0 700 0 675 0C650 0 625 0 600 0C575 0 550 0 525 0C500 0 475 0 450 0C425 0 400 0 375 0C350 0 325 0 300 0C275 0 250 0 225 0C200 0 175 0 150 0C125 0 100 0 75 0C50 0 25 0 12.5 0L0 0Z" fill="#fc6070"></path><path d="M0 54L12.5 57.8C25 61.7 50 69.3 75 72.8C100 76.3 125 75.7 150 74.3C175 73 200 71 225 67.7C250 64.3 275 59.7 300 57.7C325 55.7 350 56.3 375 57.5C400 58.7 425 60.3 450 62.8C475 65.3 500 68.7 525 69.5C550 70.3 575 68.7 600 65.8C625 63 650 59 675 59.2C700 59.3 725 63.7 750 65.2C775 66.7 800 65.3 825 64.8C850 64.3 875 64.7 887.5 64.8L900 65L900 0L887.5 0C875 0 850 0 825 0C800 0 775 0 750 0C725 0 700 0 675 0C650 0 625 0 600 0C575 0 550 0 525 0C500 0 475 0 450 0C425 0 400 0 375 0C350 0 325 0 300 0C275 0 250 0 225 0C200 0 175 0 150 0C125 0 100 0 75 0C50 0 25 0 12.5 0L0 0Z" fill="#fc4c7d"></path><path d="M0 45L12.5 47.3C25 49.7 50 54.3 75 55.2C100 56 125 53 150 52.5C175 52 200 54 225 53.5C250 53 275 50 300 48.3C325 46.7 350 46.3 375 48.3C400 50.3 425 54.7 450 56C475 57.3 500 55.7 525 54.5C550 53.3 575 52.7 600 52.2C625 51.7 650 51.3 675 52.2C700 53 725 55 750 56.8C775 58.7 800 60.3 825 60.8C850 61.3 875 60.7 887.5 60.3L900 60L900 0L887.5 0C875 0 850 0 825 0C800 0 775 0 750 0C725 0 700 0 675 0C650 0 625 0 600 0C575 0 550 0 525 0C500 0 475 0 450 0C425 0 400 0 375 0C350 0 325 0 300 0C275 0 250 0 225 0C200 0 175 0 150 0C125 0 100 0 75 0C50 0 25 0 12.5 0L0 0Z" fill="#f7398c"></path><path d="M0 48L12.5 47.5C25 47 50 46 75 44.7C100 43.3 125 41.7 150 39.2C175 36.7 200 33.3 225 34.5C250 35.7 275 41.3 300 43C325 44.7 350 42.3 375 39.7C400 37 425 34 450 32.5C475 31 500 31 525 32.5C550 34 575 37 600 38.8C625 40.7 650 41.3 675 39.8C700 38.3 725 34.7 750 33.5C775 32.3 800 33.7 825 33.8C850 34 875 33 887.5 32.5L900 32L900 0L887.5 0C875 0 850 0 825 0C800 0 775 0 750 0C725 0 700 0 675 0C650 0 625 0 600 0C575 0 550 0 525 0C500 0 475 0 450 0C425 0 400 0 375 0C350 0 325 0 300 0C275 0 250 0 225 0C200 0 175 0 150 0C125 0 100 0 75 0C50 0 25 0 12.5 0L0 0Z" fill="#ee289e"></path><path d="M0 24L12.5 25.2C25 26.3 50 28.7 75 28C100 27.3 125 23.7 150 22.2C175 20.7 200 21.3 225 23C250 24.7 275 27.3 300 27.2C325 27 350 24 375 24.5C400 25 425 29 450 29.7C475 30.3 500 27.7 525 25.5C550 23.3 575 21.7 600 22C625 22.3 650 24.7 675 26.3C700 28 725 29 750 29C775 29 800 28 825 28.3C850 28.7 875 30.3 887.5 31.2L900 32L900 0L887.5 0C875 0 850 0 825 0C800 0 775 0 750 0C725 0 700 0 675 0C650 0 625 0 600 0C575 0 550 0 525 0C500 0 475 0 450 0C425 0 400 0 375 0C350 0 325 0 300 0C275 0 250 0 225 0C200 0 175 0 150 0C125 0 100 0 75 0C50 0 25 0 12.5 0L0 0Z" fill="#de1eb2"></path><path d="M0 7L12.5 7C25 7 50 7 75 7.8C100 8.7 125 10.3 150 10.8C175 11.3 200 10.7 225 10.3C250 10 275 10 300 10C325 10 350 10 375 10C400 10 425 10 450 10.5C475 11 500 12 525 13C550 14 575 15 600 15.7C625 16.3 650 16.7 675 16.2C700 15.7 725 14.3 750 14.3C775 14.3 800 15.7 825 15C850 14.3 875 11.7 887.5 10.3L900 9L900 0L887.5 0C875 0 850 0 825 0C800 0 775 0 750 0C725 0 700 0 675 0C650 0 625 0 600 0C575 0 550 0 525 0C500 0 475 0 450 0C425 0 400 0 375 0C350 0 325 0 300 0C275 0 250 0 225 0C200 0 175 0 150 0C125 0 100 0 75 0C50 0 25 0 12.5 0L0 0Z" fill="#c724c7"></path></svg>