<svg id="visual" viewBox="0 0 900 300" width="900" height="300" xmlns="http://www.w3.org/2000/svg" xmlns:xlink="http://www.w3.org/1999/xlink" version="1.1"><rect x="0" y="0" width="900" height="300" fill="#202731"></rect><path d="M0 100L21.5 102.7C43 105.3 86 110.7 128.8 107.2C171.7 103.7 214.3 91.3 257.2 90.3C300 89.3 343 99.7 385.8 99.5C428.7 99.3 471.3 88.7 514.2 90.8C557 93 600 108 642.8 109.7C685.7 111.3 728.3 99.7 771.2 97.3C814 95 857 102 878.5 105.5L900 109L900 0L878.5 0C857 0 814 0 771.2 0C728.3 0 685.7 0 642.8 0C600 0 557 0 514.2 0C471.3 0 428.7 0 385.8 0C343 0 300 0 257.2 0C214.3 0 171.7 0 128.8 0C86 0 43 0 21.5 0L0 0Z" fill="#ff6f61"></path><path d="M0 87L21.5 89.2C43 91.3 86 95.7 128.8 92.2C171.7 88.7 214.3 77.3 257.2 76.5C300 75.7 343 85.3 385.8 85.7C428.7 86 471.3 77 514.2 76.8C557 76.7 600 85.3 642.8 84.3C685.7 83.3 728.3 72.7 771.2 71.5C814 70.3 857 78.7 878.5 82.8L900 87L900 0L878.5 0C857 0 814 0 771.2 0C728.3 0 685.7 0 642.8 0C600 0 557 0 514.2 0C471.3 0 428.7 0 385.8 0C343 0 300 0 257.2 0C214.3 0 171.7 0 128.8 0C86 0 43 0 21.5 0L0 0Z" fill="#f76455"></path><path d="M0 71L21.5 66.5C43 62 86 53 128.8 52C171.7 51 214.3 58 257.2 58.2C300 58.3 343 51.7 385.8 53.2C428.7 54.7 471.3 64.3 514.2 69.7C557 75 600 76 642.8 72.3C685.7 68.7 728.3 60.3 771.2 55.7C814 51 857 50 878.5 49.5L900 49L900 0L878.5 0C857 0 814 0 771.2 0C728.3 0 685.7 0 642.8 0C600 0 557 0 514.2 0C471.3 0 428.7 0 385.8 0C343 0 300 0 257.2 0C214.3 0 171.7 0 128.8 0C86 0 43 0 21.5 0L0 0Z" fill="#ee5849"></path><path d="M0 54L21.5 49.8C43 45.7 86 37.3 128.8 36.3C171.7 35.3 214.3 41.7 257.2 42.3C300 43 343 38 385.8 37C428.7 36 471.3 39 514.2 41.7C557 44.3 600 46.7 642.8 47C685.7 47.3 728.3 45.7 771.2 46.8C814 48 857 52 878.5 54L900 56L900 0L878.5 0C857 0 814 0 771.2 0C728.3 0 685.7 0 642.8 0C600 0 557 0 514.2 0C471.3 0 428.7 0 385.8 0C343 0 300 0 257.2 0C214.3 0 171.7 0 128.8 0C86 0 43 0 21.5 0L0 0Z" fill="#e64c3d"></path><path d="M0 16L21.5 17.3C43 18.7 86 21.3 128.8 23C171.7 24.7 214.3 25.3 257.2 24.5C300 23.7 343 21.3 385.8 20.8C428.7 20.3 471.3 21.7 514.2 22.3C557 23 600 23 642.8 23.2C685.7 23.3 728.3 23.7 771.2 22.2C814 20.7 857 17.3 878.5 15.7L900 14L900 0L878.5 0C857 0 814 0 771.2 0C728.3 0 685.7 0 642.8 0C600 0 557 0 514.2 0C471.3 0 428.7 0 385.8 0C343 0 300 0 257.2 0C214.3 0 171.7 0 128.8 0C86 0 43 0 21.5 0L0 0Z" fill="#dd3f31"></path></svg>